# xmcd
#
# Track frame offsets:
#	150
#	16277
#	43579
#	64171
#	83052
#	94790
#	106376
#	126064
#	136622
#	154806
#
# Disc length: 2426 seconds
#
# Revision: 1
# Processed by: cddbd v1.5.2PL0 Copyright (c) Steve Scherf et al.
# Submitted via: audiograbber 1.83.01
#
DISCID=7609780a
DTITLE=Giant Sand - Recounting The Ballads Of Thin Line Men
DYEAR=2019
DGENRE=Alternative Rock
TTITLE0=Reptillian
TTITLE1=A Hard Man To Get To Know
TTITLE2=Desperate Man
TTITLE3=You Can't Put Your Arms Around A Memory
TTITLE4=Tantamount
TTITLE5=Who Am I
TTITLE6=Body Of Water
TTITLE7=Graveyard
TTITLE8=The Chill Outside
TTITLE9=Thin Line Man
EXTD=Fire Records 2019
EXTT0=
EXTT1=
EXTT2=
EXTT3=
EXTT4=
EXTT5=
EXTT6=
EXTT7=
EXTT8=
EXTT9=
PLAYORDER=
